{"title":"Tokyo.Slaves.2014.JAPANESE.1080p.BluRay.REMUX.AVC.TrueHD.5.1-RAR","uid":12018653,"size":21898195474,"categoryP":"video","categoryS":"hd___movies","magnet":"?xt=urn:btih:781b1e859113d10f6fb4ce1d6c2e843f2b0d7a79&amp;dn=Tokyo.Slaves.2014.JAPANESE.1080p.BluRay.REMUX.AVC.TrueHD.5.1-RAR&amp;tr=udp%3A%2F%2Ftracker.openbittorrent.com%3A80&amp;tr=udp%3A%2F%2Fopen.demonii.com%3A1337&amp;tr=udp%3A%2F%2Ftracker.coppersurfer.tk%3A6969&amp;tr=udp%3A%2F%2Fexodus.desync.com%3A6969","seeders":0,"leechers":0,"uploader":null,"files":4,"time":1434360093,"description":"ID                                       : 1\nFormat                                   : AVC\nFormat/Info                              : Advanced Video Codec\nFormat profile                           : &lt;a class=&quot;__cf_email__&quot; href=&quot;/cdn-cgi/l/email-protection&quot; data-cfemail=&quot;ce86a7a9a68e82fae0ff&quot;&gt;[email&amp;#160;protected]&lt;/a&gt;&lt;script data-cfhash='f9e31' type=&quot;text/javascript&quot;&gt;\n/* &lt;![CDATA[ */!function(){try{var t=&quot;currentScript&quot;in document?document.currentScript:function(){for(var t=document.getElementsByTagName(&quot;script&quot;),e=t.length;e--;)if(t[e].getAttribute(&quot;data-cfhash&quot;))return t[e]}();if(t&amp;&amp;t.previousSibling){var e,r,n,i,c=t.previousSibling,a=c.getAttribute(&quot;data-cfemail&quot;);if(a){for(e=&quot;&quot;,r=parseInt(a.substr(0,2),16),n=2;a.length-n;n+=2)i=parseInt(a.substr(n,2),16)^r,e+=String.fromCharCode(i);e=document.createTextNode(e),c.parentNode.replaceChild(e,c)}t.parentNode.removeChild(t);}}catch(u){}}()/* ]]&gt; */&lt;/script&gt;\nFormat settings, CABAC                   : Yes\nFormat settings, ReFrames                : 4 frames\nFormat settings, GOP                     : M=3, N=24\nCodec ID                                 : V_MPEG4/ISO/AVC\nDuration                                 : 1h 40mn\nBit rate mode                            : Variable\nMaximum bit rate                         : 36.0 Mbps\nWidth                                    : 1 920 pixels\nHeight                                   : 1 080 pixels\nDisplay aspect ratio                     : 16:9\nFrame rate mode                          : Constant\nFrame rate                               : 23.976 fps\nStandard                                 : NTSC\nColor space                              : YUV\nChroma subsampling                       : 4:2:0\nBit depth                                : 8 bits\nScan type                                : Progressive\nTitle                                    : Tokyo.Slaves.2014.JAPANESE.1080p.BluRay.REMUX.AVC.TrueHD.5.1-RARBG\nLanguage                                 : English\nDefault                                  : No\nForced                                   : No\nColor range                              : Limited\nColor primaries                          : BT.709\nTransfer characteristics                 : BT.709\nMatrix coefficients                      : BT.709\n\nAudio #1\nID                                       : 2\nFormat                                   : TrueHD\nCodec ID                                 : A_TRUEHD\nDuration                                 : 1h 40mn\nBit rate mode                            : Variable\nMaximum bit rate                         : 2 688 Kbps\nChannel(s)                               : 6 channels\nChannel positions                        : Front: L C R, Side: L R, LFE\nSampling rate                            : 96.0 KHz\nBit depth                                : 24 bits\nCompression mode                         : Lossless\nTitle                                    : Tokyo.Slaves.2014.JAPANESE.1080p.BluRay.REMUX.AVC.TrueHD.5.1-RARBG\nLanguage                                 : Japanese\nDefault                                  : Yes\nForced                                   : No\n\nAudio #2\nID                                       : 3\nFormat                                   : AC-3\nFormat/Info                              : Audio Coding 3\nMode extension                           : CM (complete main)\nFormat settings, Endianness              : Big\nCodec ID                                 : A_AC3\nDuration                                 : 1h 40mn\nBit rate mode                            : Constant\nBit rate                                 : 640 Kbps\nChannel(s)                               : 6 channels\nChannel positions                        : Front: L C R, Side: L R, LFE\nSampling rate                            : 48.0 KHz\nBit depth                                : 16 bits\nCompression mode                         : Lossy\nStream size                              : 459 MiB (2%)\nTitle                                    : Tokyo.Slaves.2014.JAPANESE.1080p.BluRay.REMUX.AVC.TrueHD.5.1-RARBG\nLanguage                                 : Japanese\nDefault                                  : No\nForced                                   : No\n\nAudio #3\nID                                       : 4\nFormat                                   : AC-3\nFormat/Info                              : Audio Coding 3\nMode extension                           : CM (complete main)\nFormat settings, Endianness              : Big\nCodec ID                                 : A_AC3\nDuration                                 : 1h 40mn\nBit rate mode                            : Constant\nBit rate                                 : 640 Kbps\nChannel(s)                               : 6 channels\nChannel positions                        : Front: L C R, Side: L R, LFE\nSampling rate                            : 48.0 KHz\nBit depth                                : 16 bits\nCompression mode                         : Lossy\nStream size                              : 459 MiB (2%)\nTitle                                    : Tokyo.Slaves.2014.JAPANESE.1080p.BluRay.REMUX.AVC.TrueHD.5.1-RARBG\nLanguage                                 : Japanese\nDefault                                  : No\nForced                                   : No\n\nText #1\nID                                       : 5\nFormat                                   : PGS\nMuxing mode                              : zlib\nCodec ID                                 : S_HDMV/PGS\nCodec ID/Info                            : Picture based subtitle format used on BDs/HD-DVDs\nLanguage                                 : English\nDefault                                  : Yes\nForced                                   : Yes\n\nText #2\nID                                       : 6\nFormat                                   : PGS\nMuxing mode                              : zlib\nCodec ID                                 : S_HDMV/PGS\nCodec ID/Info                            : Picture based subtitle format used on BDs/HD-DVDs\nLanguage                                 : Chinese\nDefault                                  : No\nForced                                   : No\n\nText #3\nID                                       : 7\nFormat                                   : PGS\nMuxing mode                              : zlib\nCodec ID                                 : S_HDMV/PGS\nCodec ID/Info                            : Picture based subtitle format used on BDs/HD-DVDs\nLanguage                                 : Chinese\nDefault                                  : No\nForced                                   : No\n\nMenu\n00:00:00.000                             : en:Chapter 01\n00:07:30.658                             : en:Chapter 02\n00:14:43.757                             : en:Chapter 03\n00:25:39.704                             : en:Chapter 04\n00:32:12.764                             : en:Chapter 05\n00:42:06.690                             : en:Chapter 06\n00:51:46.937                             : en:Chapter 07\n00:59:39.492                             : en:Chapter 08\n01:05:33.804                             : en:Chapter 09\n01:14:34.720                             : en:Chapter 10\n01:24:59.928                             : en:Chapter 11\n01:33:20.052                             : en:Chapter 12","torrent":{"xt":"urn:btih:781b1e859113d10f6fb4ce1d6c2e843f2b0d7a79","amp;dn":"Tokyo.Slaves.2014.JAPANESE.1080p.BluRay.REMUX.AVC.TrueHD.5.1-RAR","amp;tr":["udp%3A%2F%2Ftracker.openbittorrent.com%3A80","udp%3A%2F%2Fopen.demonii.com%3A1337","udp%3A%2F%2Ftracker.coppersurfer.tk%3A6969","udp%3A%2F%2Fexodus.desync.com%3A6969"],"infoHash":"781b1e859113d10f6fb4ce1d6c2e843f2b0d7a79","infoHashBuffer":{"type":"Buffer","data":[120,27,30,133,145,19,209,15,111,180,206,29,108,46,132,63,43,13,122,121]},"announce":[],"urlList":[]}}